<?xml version="1.0" standalone="no"?>
<!DOCTYPE svg PUBLIC "-//W3C//DTD SVG 20010904//EN"
 "http://www.w3.org/TR/2001/REC-SVG-20010904/DTD/svg10.dtd">
<svg version="1.0" xmlns="http://www.w3.org/2000/svg"
 width="2477.000000pt" height="2477.000000pt" viewBox="0 0 2477.000000 2477.000000"
 preserveAspectRatio="xMidYMid meet">
<metadata>
Created by potrace 1.11, written by Peter Selinger 2001-2013
</metadata>
<g transform="translate(0.000000,2477.000000) scale(0.100000,-0.100000)"
fill="#000000" stroke="none">
<path d="M9673 24685 c4 -33 9 -71 12 -85 11 -54 17 -178 8 -183 -5 -3 -20 3
-33 14 -57 45 -166 113 -234 145 -128 61 -229 64 -295 9 -24 -21 -94 -149
-139 -255 -8 -18 -11 -20 -11 -7 -1 9 -5 17 -11 17 -6 0 -9 -3 -8 -7 3 -11
-10 -101 -32 -223 -38 -215 -43 -267 -42 -507 1 -134 -1 -243 -5 -243 -3 0
-12 8 -19 18 -11 15 -12 12 -4 -18 19 -73 22 -98 26 -220 l5 -125 -20 43 c-11
23 -22 42 -24 42 -5 0 2 -95 13 -175 8 -63 6 -506 -3 -540 -3 -11 -6 -29 -7
-40 -1 -11 -6 0 -11 24 -24 122 -79 249 -71 163 3 -36 30 -216 38 -257 7 -31
7 -282 1 -292 -3 -5 -8 -49 -12 -98 -7 -111 -10 -129 -41 -285 -75 -371 -136
-586 -180 -633 -13 -15 -49 -45 -79 -68 -30 -23 -55 -46 -55 -51 0 -5 -4 -7
-9 -4 -5 3 -15 -2 -22 -12 -13 -15 -12 -16 4 -3 36 28 18 -1 -76 -123 -39 -51
-130 -140 -194 -191 -35 -26 -63 -50 -63 -52 0 -2 17 7 38 20 49 30 93 49 100
43 11 -12 -139 -174 -171 -185 -7 -2 -30 -21 -52 -42 -52 -49 -105 -85 -180
-121 -33 -15 -52 -28 -42 -28 10 0 28 5 40 10 14 7 9 0 -12 -19 -19 -17 -92
-59 -162 -93 -115 -58 -125 -61 -103 -34 14 15 23 31 20 33 -2 3 -35 -13 -73
-35 -109 -63 -225 -121 -279 -137 -27 -9 -69 -22 -94 -30 l-45 -14 28 24 c126
110 -400 -180 -543 -299 -93 -78 -279 -258 -305 -296 -37 -53 -84 -81 -141
-83 l-47 -2 -24 -95 c-52 -199 -112 -319 -189 -373 l-42 -30 0 -66 c1 -78 -18
-123 -82 -191 -101 -107 -103 -110 -85 -130 21 -23 9 -71 -35 -140 -19 -29
-29 -54 -24 -62 11 -17 6 -70 -11 -119 -8 -23 -15 -53 -15 -66 0 -17 -4 -23
-13 -20 -11 4 -14 -11 -13 -66 0 -107 -10 -146 -42 -159 -15 -6 -22 -12 -14
-15 6 -3 12 -17 12 -31 0 -26 -10 -48 -83 -182 -20 -36 -45 -98 -56 -139 -11
-41 -22 -74 -23 -75 -43 -17 -154 -215 -155 -278 -2 -81 -91 -310 -173 -445
-14 -24 -15 -31 -5 -26 8 3 15 8 15 12 0 3 16 19 35 34 l36 29 -16 -39 c-9
-21 -28 -72 -42 -113 -33 -99 -38 -111 -103 -210 -30 -47 -59 -91 -63 -97 -5
-8 -3 -13 3 -13 6 0 45 34 86 76 41 42 74 73 74 70 0 -3 -9 -29 -19 -58 -11
-29 -22 -78 -25 -108 -9 -84 -27 -132 -99 -270 -27 -52 -51 -97 -53 -99 -2 -2
-14 4 -26 15 -23 19 -23 19 -6 -2 24 -27 23 -31 -13 -97 -17 -31 -28 -57 -25
-57 3 0 36 30 72 68 42 43 64 60 62 47 -2 -11 -10 -19 -18 -17 -10 2 -11 0 -2
-11 10 -11 8 -25 -9 -63 -11 -27 -27 -69 -36 -94 -29 -89 -101 -235 -148 -300
-51 -72 -52 -76 -3 -47 l46 26 5 -29 c4 -16 0 -47 -8 -69 -18 -51 -135 -274
-182 -349 -35 -54 -35 -56 -10 -39 31 20 57 22 57 5 0 -24 -12 -58 -19 -54 -4
3 -7 -3 -7 -12 -1 -16 -67 -232 -96 -312 -24 -68 -112 -200 -133 -201 -17 -1
-17 -2 -2 -6 9 -2 17 -9 17 -14 0 -6 7 -6 19 1 11 5 21 10 24 10 4 0 10 -98
10 -150 0 -46 -12 -81 -48 -146 -33 -59 -35 -64 -15 -64 42 0 14 -106 -51
-188 l-19 -25 30 -34 c31 -34 35 -56 24 -113 -5 -23 -15 -36 -35 -44 l-28 -12
26 -37 c15 -21 26 -49 25 -66 -1 -34 -25 -89 -51 -117 -36 -40 -41 -57 -21
-84 26 -37 36 -80 19 -80 -12 0 -12 -2 -1 -9 11 -6 11 -17 4 -45 -10 -35 -10
-36 14 -30 32 8 70 -2 77 -21 5 -10 -5 -18 -33 -26 -45 -14 -47 -27 -7 -52
l28 -18 -25 -30 c-14 -17 -26 -36 -27 -42 -3 -41 4 -114 12 -121 12 -14 11
-63 -2 -71 -7 -5 -4 -14 7 -27 16 -16 16 -22 5 -40 -11 -18 -11 -22 3 -30 14
-8 15 -12 1 -39 -14 -26 -14 -30 0 -35 17 -7 20 -37 5 -65 -9 -16 -7 -19 10
-19 29 0 36 -26 17 -65 -12 -25 -13 -33 -3 -29 7 3 24 1 38 -5 l25 -9 -13 -63
c-7 -34 -16 -65 -21 -68 -8 -6 -11 -16 -21 -59 -3 -18 2 -24 26 -33 41 -14 43
-36 9 -85 -29 -41 -29 -64 -1 -64 17 0 17 -3 0 -44 -8 -20 -10 -39 -5 -47 5
-8 9 -24 9 -35 0 -12 10 -28 21 -36 19 -12 20 -17 10 -36 -10 -18 -9 -22 5
-22 13 0 15 -7 8 -42 -16 -85 -4 -158 26 -158 23 0 27 -37 9 -72 -9 -16 -7
-26 11 -50 14 -20 20 -39 17 -56 -3 -16 2 -35 14 -51 12 -16 21 -49 24 -88 2
-35 14 -84 27 -110 12 -27 24 -66 27 -88 5 -35 10 -41 36 -45 25 -4 31 -10 30
-30 0 -15 8 -29 20 -35 14 -8 19 -19 17 -38 -3 -19 1 -27 12 -27 20 0 20 -9 0
-49 -15 -30 -15 -33 1 -45 18 -13 79 -151 95 -216 5 -19 10 -58 10 -86 0 -35
8 -66 25 -98 14 -26 24 -50 24 -54 -3 -18 3 -30 23 -52 16 -17 21 -34 19 -57
-2 -24 6 -44 28 -75 17 -23 31 -51 31 -62 0 -24 55 -116 69 -116 5 0 12 -12
15 -26 9 -33 54 -104 174 -273 85 -118 95 -138 95 -175 -1 -50 -32 -217 -42
-231 -5 -5 -21 -41 -36 -80 -15 -38 -34 -81 -42 -95 l-16 -25 21 19 21 18 -9
-31 c-5 -17 -24 -50 -42 -73 -21 -28 -27 -40 -15 -35 9 4 24 10 32 13 36 15
-2 -74 -43 -98 -36 -22 -125 -104 -92 -86 98 56 111 -3 19 -82 -25 -22 -30
-29 -16 -30 43 -1 5 -61 -100 -160 -63 -58 -78 -77 -55 -65 34 16 34 16 27 -7
-14 -45 -38 -82 -84 -131 l-46 -51 39 24 38 23 -7 -24 c-9 -30 -47 -96 -73
-129 l-20 -25 31 -44 c28 -41 31 -53 31 -123 1 -79 4 -86 22 -68 18 18 42 1
58 -41 21 -52 20 -97 -4 -166 -10 -32 -22 -78 -25 -103 l-5 -45 16 33 c32 63
70 50 52 -17 -13 -46 -91 -208 -140 -289 -50 -82 -18 -69 43 18 23 33 44 60
46 60 5 0 -39 -100 -126 -283 -28 -60 -51 -111 -51 -113 0 -3 23 23 52 58 66
81 73 88 63 63 -40 -109 -55 -153 -59 -180 -7 -39 -31 -115 -56 -170 -60 -133
-86 -208 -96 -270 -3 -22 -7 -42 -9 -45 -2 -3 -6 -26 -10 -50 -3 -25 -9 -53
-12 -64 -3 -12 -1 -16 6 -12 6 4 11 13 11 19 0 7 18 48 40 92 l40 80 -4 -133
c-3 -73 -8 -137 -11 -142 -3 -6 -1 -10 4 -10 6 0 11 10 12 23 0 12 2 31 5 42
2 11 6 43 9 70 6 61 32 152 49 177 14 19 14 12 20 -182 5 -146 -33 -306 -107
-459 -55 -114 -62 -132 -35 -96 13 16 33 41 46 55 l23 25 -6 -54 c-3 -30 -10
-75 -16 -100 -15 -64 -160 -355 -209 -418 -22 -29 -37 -53 -34 -53 11 0 61 36
96 69 l38 35 0 -31 c0 -43 -49 -156 -103 -236 -25 -37 -53 -93 -62 -125 -23
-78 -46 -119 -99 -178 -26 -28 -65 -80 -87 -115 l-41 -64 33 31 c102 93 112
99 85 45 -9 -16 -45 -63 -81 -103 -36 -40 -81 -95 -99 -123 -33 -50 -73 -151
-55 -140 5 4 9 12 9 19 0 7 34 49 75 92 74 78 83 77 41 -4 -8 -15 -25 -69 -39
-120 l-26 -92 82 -83 c81 -80 411 -392 513 -482 6 -5 51 -46 100 -91 49 -45
125 -112 169 -150 44 -38 82 -71 85 -75 6 -7 352 -293 405 -334 21 -16 72 -57
114 -91 42 -33 148 -114 236 -180 807 -605 1631 -1089 2470 -1452 636 -274
1292 -488 1990 -648 103 -23 463 -96 530 -107 295 -49 369 -60 460 -72 28 -4
61 -9 75 -11 39 -6 248 -32 315 -39 33 -3 74 -8 90 -10 34 -5 214 -22 320 -30
39 -3 93 -8 120 -10 28 -2 97 -7 155 -10 58 -3 123 -8 145 -10 256 -27 1908
-27 2165 0 19 2 109 7 200 10 91 4 181 8 200 10 19 2 91 6 160 9 69 4 145 9
170 11 25 2 92 7 150 10 58 3 121 8 140 10 19 2 78 7 130 10 96 5 191 12 265
20 22 2 67 7 100 10 125 13 366 47 526 75 877 155 1706 435 2589 876 376 188
519 269 1082 613 328 201 699 444 902 591 48 36 98 72 110 80 38 26 311 233
316 239 3 3 21 18 42 33 20 15 42 33 50 40 7 7 33 29 58 49 48 39 53 43 205
184 105 97 299 292 406 410 35 38 78 85 96 103 18 19 47 53 65 75 18 22 40 48
49 56 8 9 37 43 65 76 27 33 55 66 63 74 7 8 47 56 87 107 l74 91 5 189 c4
196 7 221 29 316 8 34 11 92 9 145 -8 175 -7 283 5 295 8 8 23 -2 56 -36 25
-25 46 -43 46 -39 0 3 -14 31 -30 60 -39 69 -64 139 -85 233 -8 41 -17 84 -20
95 -2 11 -10 49 -18 85 -8 36 -12 73 -9 84 4 16 7 15 19 -9 8 -15 16 -25 18
-23 1 1 -12 64 -31 138 -18 74 -36 160 -40 190 -5 49 -4 53 11 40 17 -14 19
-20 -49 145 -19 47 -25 83 -28 164 l-4 104 24 -49 23 -49 -5 40 c-6 44 -15
152 -21 260 -5 96 -14 180 -26 243 -6 30 -9 55 -7 58 2 2 20 -23 39 -55 18
-33 35 -58 37 -57 1 2 -13 46 -32 97 -40 110 -43 120 -50 179 -3 25 -8 54 -10
65 -2 11 -7 56 -10 100 -6 79 -13 142 -22 200 -8 45 5 24 43 -72 18 -48 31
-74 29 -58 -3 17 -10 62 -16 100 -17 110 -38 172 -101 295 -32 63 -62 135 -66
160 l-6 45 23 -16 c13 -8 38 -44 57 -79 18 -35 33 -59 33 -52 0 30 -42 128
-88 204 -65 108 -65 111 -28 123 28 9 31 14 28 45 -1 19 -18 62 -37 96 l-35
63 25 86 c13 47 29 114 35 148 6 34 12 73 14 87 3 14 5 37 5 51 1 36 35 45 61
16 11 -11 20 -26 20 -31 0 -6 6 -23 14 -37 7 -14 17 -43 21 -65 5 -21 9 -41
10 -44 2 -5 19 -120 19 -132 1 -3 4 -9 7 -12 12 -13 -8 222 -31 349 -9 52 -18
108 -25 160 -3 17 -7 41 -10 55 -2 14 -7 52 -10 85 -3 33 -8 76 -10 95 -2 19
-7 60 -10 90 -4 30 -9 64 -12 75 -7 24 72 -80 111 -148 16 -26 30 -47 32 -45
10 10 -32 166 -81 298 -102 276 -132 384 -139 506 -8 148 -52 534 -72 637 -5
22 -2 27 15 27 28 0 54 -31 96 -116 20 -41 38 -74 40 -74 6 0 -24 77 -53 135
-73 147 -134 315 -148 407 l-7 42 34 -24 c19 -13 46 -36 60 -50 38 -39 99 -84
105 -78 3 3 -21 43 -52 89 -127 186 -147 216 -175 271 -15 31 -49 126 -74 211
-52 175 -56 237 -18 247 21 5 21 6 -13 50 -52 68 -77 118 -56 114 4 -1 21 -5
37 -8 l30 -7 -31 33 c-17 18 -64 76 -103 129 -65 88 -81 119 -172 345 -190
469 -215 546 -283 844 -59 263 -111 549 -136 740 -6 47 -13 103 -16 125 -8 60
-42 205 -58 245 -8 19 -39 103 -70 185 -69 182 -62 166 -124 300 -77 169 -178
413 -197 480 -10 33 -25 80 -33 105 -8 25 -16 59 -19 75 -3 17 -9 38 -14 48
-19 35 0 16 30 -30 17 -27 43 -62 58 -78 16 -17 43 -47 61 -68 17 -21 32 -36
32 -33 0 2 -17 33 -38 67 -46 76 -79 157 -122 299 -17 58 -36 114 -41 125 -14
30 -47 146 -52 183 -5 31 5 43 19 21 10 -16 96 -69 112 -69 17 0 10 65 -14
132 -8 23 -16 50 -18 62 -3 12 -14 45 -25 74 -10 28 -18 52 -15 52 2 0 0 10
-5 23 -5 12 -12 51 -16 87 -11 103 -13 117 -20 142 -5 13 20 -10 55 -52 85
-102 87 -102 51 8 -5 15 -23 61 -41 102 -43 104 -120 372 -160 560 -5 25 -18
76 -30 115 -27 93 -25 99 11 42 18 -26 33 -46 36 -44 2 2 -17 50 -43 107 -34
74 -56 145 -81 259 -40 182 -36 168 -58 250 -9 35 -14 65 -12 67 2 2 32 -25
66 -61 60 -62 62 -63 55 -33 -11 52 -115 234 -174 305 -5 6 -37 65 -71 130
-35 65 -88 161 -119 213 -120 202 -123 208 -90 188 10 -7 22 -9 26 -6 6 7 -3
21 -74 110 -18 22 -43 59 -56 82 -26 46 -124 288 -216 536 -34 91 -80 210
-103 265 -22 55 -40 109 -40 120 0 11 10 49 21 85 74 241 96 319 122 425 16
66 31 134 34 150 3 17 8 41 11 55 38 190 59 388 70 660 3 69 7 143 11 165 9
60 42 168 69 227 33 70 32 82 -10 97 -63 23 -68 44 -70 321 -3 366 -2 358 -19
334 -14 -18 -15 -17 -29 16 -8 19 -22 96 -32 170 -10 74 -19 144 -21 155 -34
202 -48 294 -60 395 -2 14 -4 84 -4 156 -1 72 -5 137 -10 144 -4 7 -8 -3 -8
-26 0 -22 -6 -53 -12 -69 -15 -37 -14 -40 -68 145 -44 146 -58 214 -68 330 -4
41 -8 82 -10 90 -1 8 -3 67 -4 130 -1 75 -4 108 -10 94 -11 -29 -62 -64 -92
-64 -37 0 -52 17 -107 118 -27 51 -64 111 -83 134 -18 23 -26 38 -18 34 8 -5
4 2 -8 16 -63 69 -210 115 -422 133 -59 5 -86 8 -187 20 -52 6 -106 23 -140
45 -45 27 -54 72 -28 134 5 10 -30 -19 -77 -65 -54 -54 -114 -101 -169 -133
-46 -27 -102 -63 -124 -81 -63 -50 -64 -50 -53 -2 5 23 11 49 13 57 2 8 19 61
38 118 19 56 33 102 32 102 -2 0 -47 -71 -101 -157 -198 -319 -423 -646 -453
-658 -29 -11 -24 11 21 99 19 37 -10 6 -69 -72 -32 -42 -87 -111 -123 -152
-36 -41 -76 -88 -89 -105 -15 -19 -21 -22 -16 -10 53 137 40 182 -16 57 -94
-209 -164 -312 -254 -381 -16 -12 -23 -20 -15 -16 43 18 -196 -191 -312 -274
-82 -58 -164 -138 -153 -150 3 -2 23 6 46 18 22 13 43 21 45 18 8 -8 -20 -33
-167 -152 -130 -105 -179 -151 -220 -207 -35 -47 -7 -35 97 44 64 48 74 48 30
1 -19 -21 -43 -47 -53 -59 -37 -43 -140 -160 -227 -258 -141 -159 -327 -341
-371 -363 -43 -22 -90 -30 -230 -38 -49 -3 -112 -8 -140 -10 -93 -9 -330 -6
-420 5 -50 6 -106 12 -125 15 -19 2 -60 6 -90 9 -90 9 -333 37 -357 41 -12 2
-57 6 -100 10 -185 15 -263 29 -263 48 0 6 28 38 63 71 34 33 55 57 47 54 -8
-3 -40 -13 -70 -23 -30 -10 -59 -21 -65 -25 -21 -16 -188 -51 -212 -45 -25 6
-24 6 16 35 23 17 41 32 41 34 0 5 -68 -12 -95 -24 -73 -33 -256 -81 -324 -86
-134 -8 -175 -7 -217 4 -48 14 -118 72 -159 134 -96 143 -184 242 -201 226 -2
-3 19 -50 46 -105 50 -100 59 -133 40 -133 -13 0 -109 48 -178 89 -50 29 -51
30 -54 8 -3 -19 -9 -22 -52 -22 -28 -1 -79 3 -115 7 -147 17 -228 25 -361 33
-243 16 -326 23 -435 35 -176 20 -308 47 -380 77 -43 18 -212 117 -283 165
-34 24 -125 128 -210 243 -151 204 -230 330 -332 534 -66 132 -87 178 -96 211
-28 115 -70 240 -72 220 -7 -47 -18 -40 -46 28 -16 37 -67 141 -113 232 -47
91 -97 202 -113 248 -15 46 -31 86 -36 90 -4 4 -4 1 0 -6 10 -17 -2 -52 -18
-52 -7 0 -28 19 -47 43 -18 23 -41 50 -49 61 -56 70 -110 129 -237 263 -174
183 -168 176 -243 308 -41 73 -117 272 -127 330 -9 55 -16 41 -10 -20z m11430
-9487 c14 -49 23 -88 21 -88 -11 0 -44 94 -48 141 -7 66 -4 59 27 -53z"/>
<path d="M4545 15880 c10 -11 20 -20 23 -20 3 0 -3 9 -13 20 -10 11 -20 20
-23 20 -3 0 3 -9 13 -20z"/>
<path d="M4380 14976 c0 -2 7 -7 16 -10 8 -3 12 -2 9 4 -6 10 -25 14 -25 6z"/>
<path d="M3868 14703 c7 -3 16 -2 19 1 4 3 -2 6 -13 5 -11 0 -14 -3 -6 -6z"/>
<path d="M4044 14693 c4 -4 16 -8 28 -10 28 -4 18 6 -12 12 -12 2 -20 1 -16
-2z"/>
<path d="M4195 14670 c3 -5 8 -10 11 -10 2 0 4 5 4 10 0 6 -5 10 -11 10 -5 0
-7 -4 -4 -10z"/>
<path d="M4288 14653 c7 -3 16 -2 19 1 4 3 -2 6 -13 5 -11 0 -14 -3 -6 -6z"/>
<path d="M4348 14643 c6 -2 18 -2 25 0 6 3 1 5 -13 5 -14 0 -19 -2 -12 -5z"/>
<path d="M4408 14633 c7 -3 16 -2 19 1 4 3 -2 6 -13 5 -11 0 -14 -3 -6 -6z"/>
<path d="M4468 14623 c7 -3 16 -2 19 1 4 3 -2 6 -13 5 -11 0 -14 -3 -6 -6z"/>
<path d="M4338 13963 c7 -3 16 -2 19 1 4 3 -2 6 -13 5 -11 0 -14 -3 -6 -6z"/>
<path d="M4278 13953 c6 -2 18 -2 25 0 6 3 1 5 -13 5 -14 0 -19 -2 -12 -5z"/>
<path d="M4228 13943 c7 -3 16 -2 19 1 4 3 -2 6 -13 5 -11 0 -14 -3 -6 -6z"/>
<path d="M4188 13933 c7 -3 16 -2 19 1 4 3 -2 6 -13 5 -11 0 -14 -3 -6 -6z"/>
<path d="M4106 13921 c-4 -5 3 -7 14 -4 23 6 26 13 6 13 -8 0 -17 -4 -20 -9z"/>
<path d="M3828 13853 c7 -3 16 -2 19 1 4 3 -2 6 -13 5 -11 0 -14 -3 -6 -6z"/>
<path d="M3698 13823 c7 -3 16 -2 19 1 4 3 -2 6 -13 5 -11 0 -14 -3 -6 -6z"/>
<path d="M3558 13783 c6 -2 18 -2 25 0 6 3 1 5 -13 5 -14 0 -19 -2 -12 -5z"/>
<path d="M4158 13683 c7 -3 16 -2 19 1 4 3 -2 6 -13 5 -11 0 -14 -3 -6 -6z"/>
<path d="M4208 13683 c12 -2 30 -2 40 0 9 3 -1 5 -23 4 -22 0 -30 -2 -17 -4z"/>
<path d="M3838 13673 c7 -3 16 -2 19 1 4 3 -2 6 -13 5 -11 0 -14 -3 -6 -6z"/>
<path d="M4308 13653 c7 -3 16 -2 19 1 4 3 -2 6 -13 5 -11 0 -14 -3 -6 -6z"/>
<path d="M3125 13640 c-16 -7 -17 -9 -3 -9 9 -1 20 4 23 9 7 11 7 11 -20 0z"/>
<path d="M3888 13593 c7 -3 16 -2 19 1 4 3 -2 6 -13 5 -11 0 -14 -3 -6 -6z"/>
<path d="M4188 13233 c7 -3 16 -2 19 1 4 3 -2 6 -13 5 -11 0 -14 -3 -6 -6z"/>
<path d="M4128 13213 c7 -3 16 -2 19 1 4 3 -2 6 -13 5 -11 0 -14 -3 -6 -6z"/>
<path d="M4038 13183 c7 -3 16 -2 19 1 4 3 -2 6 -13 5 -11 0 -14 -3 -6 -6z"/>
<path d="M3960 13160 c-9 -6 -10 -10 -3 -10 6 0 15 5 18 10 8 12 4 12 -15 0z"/>
<path d="M3870 13125 c-14 -8 -20 -14 -15 -14 6 0 21 6 35 14 14 8 21 14 15
14 -5 0 -21 -6 -35 -14z"/>
<path d="M3725 13070 c-3 -6 1 -7 9 -4 18 7 21 14 7 14 -6 0 -13 -4 -16 -10z"/>
<path d="M3464 12964 c-18 -14 -18 -15 4 -4 12 6 22 13 22 15 0 8 -5 6 -26
-11z"/>
<path d="M4160 12879 c-22 -18 -22 -19 -3 -10 12 6 25 16 28 21 9 15 3 12 -25
-11z"/>
<path d="M4030 12815 c-14 -8 -20 -14 -14 -15 5 0 19 7 30 15 24 18 16 19 -16
0z"/>
<path d="M3980 12790 c-9 -6 -10 -10 -3 -10 6 0 15 5 18 10 8 12 4 12 -15 0z"/>
<path d="M3934 12764 c-18 -14 -18 -15 4 -4 12 6 22 13 22 15 0 8 -5 6 -26
-11z"/>
<path d="M3885 12740 c-3 -6 1 -7 9 -4 18 7 21 14 7 14 -6 0 -13 -4 -16 -10z"/>
<path d="M3765 12670 c-3 -6 1 -7 9 -4 18 7 21 14 7 14 -6 0 -13 -4 -16 -10z"/>
<path d="M3704 12634 c-18 -14 -18 -15 4 -4 12 6 22 13 22 15 0 8 -5 6 -26
-11z"/>
<path d="M3630 12589 c0 -5 5 -7 10 -4 6 3 10 8 10 11 0 2 -4 4 -10 4 -5 0
-10 -5 -10 -11z"/>
<path d="M2960 12150 c-9 -6 -10 -10 -3 -10 6 0 15 5 18 10 8 12 4 12 -15 0z"/>
<path d="M2905 12110 c-3 -6 1 -7 9 -4 18 7 21 14 7 14 -6 0 -13 -4 -16 -10z"/>
<path d="M4269 12073 c-13 -16 -12 -17 4 -4 16 13 21 21 13 21 -2 0 -10 -8
-17 -17z"/>
<path d="M4225 11890 c-3 -6 1 -7 9 -4 18 7 21 14 7 14 -6 0 -13 -4 -16 -10z"/>
<path d="M3947 11725 c-20 -14 -37 -28 -37 -31 0 -2 18 8 40 22 35 23 47 34
37 34 -1 0 -19 -11 -40 -25z"/>
<path d="M22450 11236 c0 -2 8 -10 18 -17 15 -13 16 -12 3 4 -13 16 -21 21
-21 13z"/>
<path d="M4651 5894 c0 -11 3 -14 6 -6 3 7 2 16 -1 19 -3 4 -6 -2 -5 -13z"/>
<path d="M22987 5213 c16 -46 51 -113 59 -113 5 0 -8 32 -40 103 -15 31 -28
57 -31 57 -2 0 3 -21 12 -47z"/>
<path d="M23096 4737 c3 -10 9 -15 12 -12 3 3 0 11 -7 18 -10 9 -11 8 -5 -6z"/>
</g>
</svg>
